<?xml version="1.0" encoding="UTF-8" standalone="no"?>
<!-- Created with Inkscape (http://www.inkscape.org/) -->

<svg
   version="1.1"
   id="svg2"
   width="137.82974"
   height="91.886536"
   viewBox="0 0 137.82974 91.886537"
   sodipodi:docname="icon1.png"
   inkscape:version="1.2.2 (b0a8486541, 2022-12-01)"
   inkscape:export-filename="icon3.tiff"
   inkscape:export-xdpi="2.3954809"
   inkscape:export-ydpi="2.3954809"
   xml:space="preserve"
   xmlns:inkscape="http://www.inkscape.org/namespaces/inkscape"
   xmlns:sodipodi="http://sodipodi.sourceforge.net/DTD/sodipodi-0.dtd"
   xmlns="http://www.w3.org/2000/svg"
   xmlns:svg="http://www.w3.org/2000/svg"><defs
     id="defs6" /><sodipodi:namedview
     id="namedview4"
     pagecolor="#ffffff"
     bordercolor="#666666"
     borderopacity="1.0"
     inkscape:showpageshadow="2"
     inkscape:pageopacity="0.0"
     inkscape:pagecheckerboard="0"
     inkscape:deskcolor="#d1d1d1"
     showgrid="false"
     inkscape:zoom="2.9215197"
     inkscape:cx="58.87347"
     inkscape:cy="23.960133"
     inkscape:window-width="1920"
     inkscape:window-height="1011"
     inkscape:window-x="0"
     inkscape:window-y="32"
     inkscape:window-maximized="1"
     inkscape:current-layer="g8" /><g
     inkscape:groupmode="layer"
     inkscape:label="Image"
     id="g8"
     transform="translate(-1.2102134,-2.2811886)"><path
       d="m 105.27707,38.826432 0.6758,6.048857 c 1.20467,7.950837 -15.991683,17.597974 -35.656638,17.597974 -21.117159,0 -37.817264,-8.850171 -37.338714,-17.285068 l 0.442361,-6.60379 c 0,0 22.352722,7.085697 33.732735,10.464733 0.979261,0.290769 1.97095,0.662759 2.992466,0.660783 1.187784,-0.0023 2.516081,-0.493473 3.476539,-0.781792 z M 139.03996,25.25285 c 0,0.837505 -0.53841,1.555373 -1.31609,1.854483 L 70.723305,48.164657 c -0.239302,0.05986 -0.418758,0.05986 -0.598217,0.05986 -0.179469,0 -0.35894,0 -0.598229,-0.05986 L 30.522963,35.841331 c -3.40987,2.691989 -5.80272,9.272405 -6.28133,17.348361 2.27323,1.316089 3.76881,3.708967 3.76881,6.520593 0,2.691989 -1.37591,5.025044 -3.46967,6.400946 l 3.46967,25.902903 c 0.0598,0.538397 -0.11971,1.076792 -0.4786,1.495551 -0.3589,0.418748 -0.89731,0.658043 -1.43572,0.658043 h -11.48579 c -0.53842,0 -1.07678,-0.239295 -1.43573,-0.658043 -0.35894,-0.418759 -0.53841,-0.957154 -0.47856,-1.495551 l 3.46964,-25.902903 c -2.09377,-1.375902 -3.46964,-3.708957 -3.46964,-6.400946 0,-2.87145 1.61516,-5.324151 3.88839,-6.64023 0.35895,-6.999174 2.15361,-14.536735 5.86258,-19.741239 L 2.5262834,27.107333 c -0.77766,-0.29911 -1.31607,-1.016978 -1.31607,-1.854483 0,-0.837506 0.53841,-1.555372 1.31607,-1.854484 L 69.526859,2.3410486 c 0.239289,-0.05986 0.41876,-0.05986 0.598229,-0.05986 0.179459,0 0.358915,0 0.598217,0.05986 L 137.72387,23.398366 c 0.77768,0.299112 1.31609,1.016978 1.31609,1.854484 z"
       id="path3213"
       style="display:inline;stroke-width:0.0598219"
       inkscape:label="path2051"
       sodipodi:nodetypes="ccsccsascsccscccsccssssccscccsccsccs" /><g
       id="g3604"
       transform="matrix(0.12020089,0,0,0.12020089,71.995938,69.992952)"><g
         id="g3587"><g
           inkscape:label="Ebene 1"
           id="layer1"
           transform="matrix(1.0666667,0,0,1.0666667,-306.17004,-305.40923)"><circle
             style="fill:#6606b6;fill-opacity:1;stroke:none;stroke-width:3.04503;stroke-miterlimit:4;stroke-dasharray:none;stroke-opacity:1"
             id="path4136"
             cx="171.37869"
             cy="264.47479"
             r="26.042995" /><circle
             style="fill:#6606b6;fill-opacity:1;stroke:none;stroke-width:3.04503;stroke-miterlimit:4;stroke-dasharray:none;stroke-opacity:1"
             id="path4136-6"
             cx="309.32767"
             cy="264.47479"
             r="26.042995" /><circle
             style="fill:#6606b6;fill-opacity:1;stroke:none;stroke-width:3.04503;stroke-miterlimit:4;stroke-dasharray:none;stroke-opacity:1"
             id="path4136-3"
             cx="240.35316"
             cy="264.47479"
             r="26.042995" /><circle
             style="fill:#6606b6;fill-opacity:1;stroke:none;stroke-width:3.04503;stroke-miterlimit:4;stroke-dasharray:none;stroke-opacity:1"
             id="path4136-7"
             cx="378.30212"
             cy="264.47479"
             r="26.042995" /><circle
             style="fill:#6606b6;fill-opacity:1;stroke:none;stroke-width:3.04503;stroke-miterlimit:4;stroke-dasharray:none;stroke-opacity:1"
             id="path4136-5"
             cx="203.81406"
             cy="323.54965"
             r="26.042995" /><circle
             style="fill:#6606b6;fill-opacity:1;stroke:none;stroke-width:3.04503;stroke-miterlimit:4;stroke-dasharray:none;stroke-opacity:1"
             id="path4136-35"
             cx="274.84042"
             cy="323.54965"
             r="26.042995" /><circle
             style="fill:#6606b6;fill-opacity:1;stroke:none;stroke-width:3.04503;stroke-miterlimit:4;stroke-dasharray:none;stroke-opacity:1"
             id="path4136-62"
             cx="345.86676"
             cy="323.54965"
             r="26.042995" /><g
             id="g4571"
             transform="translate(2.3675537,1.875)"><circle
               r="26.042995"
               cy="383.23083"
               cx="238.14346"
               id="path4136-9"
               style="fill:#6606b6;fill-opacity:1;stroke:none;stroke-width:3.04503;stroke-miterlimit:4;stroke-dasharray:none;stroke-opacity:1" /><circle
               r="26.042995"
               cy="383.23083"
               cx="306.80225"
               id="path4136-1"
               style="fill:#6606b6;fill-opacity:1;stroke:none;stroke-width:3.04503;stroke-miterlimit:4;stroke-dasharray:none;stroke-opacity:1" /></g><circle
             style="fill:#6606b6;fill-opacity:1;stroke:none;stroke-width:3.04503;stroke-miterlimit:4;stroke-dasharray:none;stroke-opacity:1"
             id="path4136-2"
             cx="274.84039"
             cy="447.62808"
             r="26.042995" /><g
             style="font-style:normal;font-variant:normal;font-weight:bold;font-stretch:normal;font-size:180px;line-height:125%;font-family:Arial;-inkscape-font-specification:'Arial Bold';letter-spacing:0px;word-spacing:0px;fill:#23b220;fill-opacity:1;stroke:#ffffff;stroke-width:0.527938;stroke-linecap:butt;stroke-linejoin:miter;stroke-miterlimit:4;stroke-dasharray:none;stroke-opacity:1"
             id="flowRoot4814"
             transform="matrix(1.2695655,0,0,1.2697956,25.267546,137.11123)"><path
               d="m 210.10352,57.161102 h 25.92773 V 138.7236 q 0,15.9961 -2.8125,24.60938 -3.7793,11.25 -13.71094,18.10547 -9.93164,6.76757 -26.1914,6.76757 -19.07227,0 -29.35547,-10.63476 -10.28321,-10.72266 -10.3711,-31.37696 l 24.52149,-2.8125 q 0.43945,11.07422 3.25195,15.64454 4.21875,6.94336 12.83203,6.94336 8.70117,0 12.30469,-4.92188 3.60352,-5.00977 3.60352,-20.6543 z"
               style="fill:#23b220;fill-opacity:1;stroke:#ffffff;stroke-width:0.527938;stroke-miterlimit:4;stroke-dasharray:none;stroke-opacity:1"
               id="path4823"
               inkscape:connector-curvature="0" /></g></g></g></g></g></svg>
